<svg width="12" height="12" viewBox="0 0 12 12" fill="none" xmlns="http://www.w3.org/2000/svg">
<g clip-path="url(#clip0_26_2300)">
<path d="M4.99986 6.49998C5.21458 6.78705 5.48853 7.02457 5.80313 7.19645C6.11773 7.36833 6.46561 7.47054 6.82318 7.49615C7.18075 7.52176 7.53965 7.47017 7.87553 7.34487C8.21141 7.21958 8.51641 7.02352 8.76986 6.76998L10.2699 5.26998C10.7253 4.79848 10.9772 4.16697 10.9715 3.51148C10.9658 2.85599 10.7029 2.22896 10.2394 1.76544C9.77588 1.30192 9.14885 1.03899 8.49336 1.0333C7.83787 1.0276 7.20636 1.27959 6.73486 1.73498L5.87486 2.58998M6.99986 5.49998C6.78513 5.21292 6.51118 4.97539 6.19658 4.80351C5.88198 4.63163 5.5341 4.52942 5.17653 4.50382C4.81896 4.47821 4.46006 4.5298 4.12418 4.65509C3.7883 4.78038 3.4833 4.97645 3.22986 5.22998L1.72986 6.72998C1.27446 7.20149 1.02247 7.83299 1.02817 8.48849C1.03387 9.14398 1.29679 9.77101 1.76031 10.2345C2.22383 10.698 2.85086 10.961 3.50635 10.9667C4.16184 10.9724 4.79335 10.7204 5.26486 10.265L6.11986 9.40998" stroke="#EBEDF0" stroke-linecap="round" stroke-linejoin="round"/>
</g>
<defs>
<clipPath id="clip0_26_2300">
<rect width="12" height="12" fill="white"/>
</clipPath>
</defs>
</svg>
